<svg width="24" height="24" viewBox="0 0 24 24" fill="#ffffff" xmlns="http://www.w3.org/2000/svg">
<g clip-path="url(#clip0_4482_11127)">
<path d="M5.43996 17.0502C5.75996 17.3802 6.19996 17.5602 6.65996 17.5602H17.33C17.79 17.5602 18.23 17.3802 18.55 17.0502L19.27 16.3302C19.6 16.0102 19.78 15.5702 19.78 15.1102V13.6102C19.78 12.8702 19.3 12.2002 18.6 11.9702L14.6 10.6402V7.18023L15.8 6.41023C16.69 5.84023 17.1 4.76023 16.81 3.74023C16.52 2.70023 15.58 1.99023 14.5 1.99023H9.48996C8.41996 1.99023 7.46996 2.70023 7.17996 3.74023C6.89996 4.75023 7.30996 5.84023 8.18996 6.41023L9.38996 7.18023V10.6402L5.38996 11.9702C4.67996 12.2002 4.20996 12.8602 4.20996 13.6102V15.1002C4.20996 15.5602 4.38996 16.0002 4.71996 16.3202L5.43996 17.0402V17.0502Z"/>
<path d="M22 21.25H2C1.59 21.25 1.25 21.59 1.25 22C1.25 22.41 1.59 22.75 2 22.75H22C22.41 22.75 22.75 22.41 22.75 22C22.75 21.59 22.41 21.25 22 21.25Z"/>
</g>
<defs>
<clipPath id="clip0_4482_11127">
<rect width="24" height="24" fill="white"/>
</clipPath>
</defs>
</svg>